# xmcd
#
# Track frame offsets: 
#        150
#        7806
#        21647
#        35614
#        52482
#        62801
#        80780
#        98928
#        115184
#        135002
#        148562
#        166149
#        187858
#
# Disc length: 2664 seconds
#
# Revision: 0
# Processed by: cddbd v1.5.2PL0 Copyright (c) Steve Scherf et al.
# Submitted via: ExactAudioCopy v0.99pb5
#
DISCID=ad0a660d
DTITLE=Redman - Reggie
DYEAR=2010
DGENRE=Rap
TTITLE0=Reggie (Intro)
TTITLE1=That's Where I Be feat. DJ Kool
TTITLE2=Def Jammable
TTITLE3=Full Nelson feat. Ready Roc, Runt Dawg and Saukrates
TTITLE4=Lift It Up
TTITLE5=All I Do feat. Faith Evans
TTITLE6=Lemme Get 2 feat. Saukrates
TTITLE7=Mic, Light, Camera, Action
TTITLE8=Cheerz feat. Ready Roc and Melanie Rutherford
TTITLE9=Rockin Wit Da Best feat. Kool Moe Dee
TTITLE10=Lite 1 Witcha Boi feat. Method Man and Bun B
TTITLE11=When The Lights Go Off feat. Poo Bear
TTITLE12=Tiger Style Crane
EXTD=
EXTT0=
EXTT1=
EXTT2=
EXTT3=
EXTT4=
EXTT5=
EXTT6=
EXTT7=
EXTT8=
EXTT9=
EXTT10=
EXTT11=
EXTT12=
PLAYORDER=
